# xmcd
#
# Track frame offsets: 
#        150
#        17102
#        32122
#        44152
#        58292
#        72160
#        82712
#        93930
#        110372
#        121062
#        138425
#        155032
#        169372
#        182705
#
# Disc length: 2564 seconds
#
# Revision: 3
# Processed by: cddbd v1.5.2PL0 Copyright (c) Steve Scherf et al.
# Submitted via: ExactAudioCopyFreeDBPlugin 1.0
#
DISCID=bf0a020e
DTITLE=Collard Greens and Gravy - Devil in the Woodpile
DYEAR=2007
DGENRE=Blues-Aust
TTITLE0=No Love
TTITLE1=Sometimes I Wonder
TTITLE2=Parchman Farm
TTITLE3=Can't Take It
TTITLE4=Dyin' Bed
TTITLE5=Lonesome John
TTITLE6=Come Back
TTITLE7=Skinny Woman
TTITLE8=So Much Trouble
TTITLE9=So Bad This Morning
TTITLE10=Streamline Train
TTITLE11=Senotobia Stomp
TTITLE12=Take Me When I Drop
TTITLE13=Devil in the Woodpile
EXTD=
EXTT0=
EXTT1=
EXTT2=
EXTT3=
EXTT4=
EXTT5=
EXTT6=
EXTT7=
EXTT8=
EXTT9=
EXTT10=
EXTT11=
EXTT12=
EXTT13=
PLAYORDER=
